<svg width="50" height="50" viewBox="0 0 50 50" fill="none" xmlns="http://www.w3.org/2000/svg">
<path d="M50 25C50 38.8071 38.8071 50 25 50C11.1929 50 0 38.8071 0 25C0 11.1929 11.1929 0 25 0C38.8071 0 50 11.1929 50 25ZM6.11036 25C6.11036 35.4325 14.5675 43.8896 25 43.8896C35.4325 43.8896 43.8896 35.4325 43.8896 25C43.8896 14.5675 35.4325 6.11036 25 6.11036C14.5675 6.11036 6.11036 14.5675 6.11036 25Z" fill="#C4C4C4"/>
<path d="M21.2448 3.37886C20.9561 1.71642 22.0714 0.114822 23.7566 0.0308923C28.4699 -0.203842 33.1764 0.900009 37.3189 3.24584C42.3519 6.09589 46.2409 10.6029 48.3234 15.9989C50.4058 21.3948 50.5529 27.346 48.7395 32.8382C46.9261 38.3305 43.2644 43.024 38.3783 46.1192C33.4923 49.2143 27.6842 50.5196 21.9437 49.8125C16.2032 49.1054 10.8855 46.4297 6.8966 42.2414C2.90771 38.0531 0.494455 32.6113 0.0680355 26.8431C-0.282943 22.0955 0.729964 17.3685 2.95599 13.2075C3.75192 11.7196 5.67652 11.3955 7.05621 12.3669V12.3669C8.4359 13.3382 8.74122 15.2368 8.00473 16.755C6.55998 19.733 5.9151 23.0561 6.16177 26.3926C6.48396 30.751 8.30738 34.8627 11.3213 38.0274C14.3353 41.192 18.3533 43.2137 22.6907 43.748C27.0282 44.2822 31.4167 43.296 35.1085 40.9574C38.8003 38.6187 41.567 35.0723 42.9372 30.9224C44.3074 26.7726 44.1963 22.276 42.6228 18.1989C41.0493 14.1217 38.1108 10.7163 34.308 8.56287C31.3967 6.91425 28.1167 6.07749 24.8069 6.11131C23.1196 6.12855 21.5335 5.0413 21.2448 3.37886V3.37886Z" fill="#FFFEFE"/>
<path d="M18.541 25.5898C18.0996 26.0234 17.584 26.2402 16.9941 26.2402C16.2402 26.2402 15.6367 25.9824 15.1836 25.4668C14.7305 24.9473 14.5039 24.248 14.5039 23.3691C14.5039 22.8105 14.625 22.2988 14.8672 21.834C15.1133 21.3652 15.4551 21.002 15.8926 20.7441C16.3301 20.4824 16.8223 20.3516 17.3691 20.3516C17.9316 20.3516 18.4316 20.4922 18.8691 20.7734C19.3066 21.0547 19.6465 21.459 19.8887 21.9863C20.1309 22.5137 20.2539 23.1172 20.2578 23.7969V24.4238C20.2578 25.8457 19.9043 26.9629 19.1973 27.7754C18.4902 28.5879 17.4883 29.0215 16.1914 29.0762L15.7754 29.082V27.6699L16.1504 27.6641C17.623 27.5977 18.4199 26.9062 18.541 25.5898ZM17.4102 24.9453C17.6836 24.9453 17.918 24.875 18.1133 24.7344C18.3125 24.5938 18.4629 24.4238 18.5645 24.2246V23.5273C18.5645 22.9531 18.4551 22.5078 18.2363 22.1914C18.0176 21.875 17.7246 21.7168 17.3574 21.7168C17.0176 21.7168 16.7383 21.873 16.5195 22.1855C16.3008 22.4941 16.1914 22.8828 16.1914 23.3516C16.1914 23.8164 16.2969 24.1992 16.5078 24.5C16.7227 24.7969 17.0234 24.9453 17.4102 24.9453ZM27.3329 25.4727C27.3329 26.6523 27.0887 27.5547 26.6005 28.1797C26.1122 28.8047 25.3973 29.1172 24.4559 29.1172C23.5262 29.1172 22.8153 28.8105 22.3231 28.1973C21.8309 27.584 21.579 26.7051 21.5673 25.5605V23.9902C21.5673 22.7988 21.8134 21.8945 22.3055 21.2773C22.8016 20.6602 23.5145 20.3516 24.4442 20.3516C25.3739 20.3516 26.0848 20.6582 26.577 21.2715C27.0692 21.8809 27.3212 22.7578 27.3329 23.9023V25.4727ZM25.6395 23.75C25.6395 23.043 25.5419 22.5293 25.3466 22.209C25.1552 21.8848 24.8544 21.7227 24.4442 21.7227C24.0458 21.7227 23.7509 21.877 23.5595 22.1855C23.372 22.4902 23.2723 22.9688 23.2606 23.6211V25.6953C23.2606 26.3906 23.3544 26.9082 23.5419 27.248C23.7333 27.584 24.038 27.752 24.4559 27.752C24.87 27.752 25.1688 27.5898 25.3524 27.2656C25.536 26.9414 25.6317 26.4453 25.6395 25.7773V23.75ZM28.5779 22.1094C28.5779 21.5859 28.7478 21.1621 29.0877 20.8379C29.4275 20.5098 29.8728 20.3457 30.4236 20.3457C30.9822 20.3457 31.4314 20.5078 31.7712 20.832C32.1111 21.1523 32.281 21.5879 32.281 22.1387V22.5605C32.281 23.0879 32.1111 23.5117 31.7712 23.832C31.4314 24.1523 30.9861 24.3125 30.4353 24.3125C29.8806 24.3125 29.4314 24.1523 29.0877 23.832C28.7478 23.5078 28.5779 23.0723 28.5779 22.5254V22.1094ZM29.7029 22.5605C29.7029 22.7949 29.7693 22.9844 29.9021 23.1289C30.0388 23.2695 30.2166 23.3398 30.4353 23.3398C30.6541 23.3398 30.8279 23.2676 30.9568 23.123C31.0857 22.9785 31.1502 22.7852 31.1502 22.543V22.1094C31.1502 21.875 31.0857 21.6855 30.9568 21.541C30.8279 21.3965 30.6502 21.3242 30.4236 21.3242C30.2087 21.3242 30.0349 21.3965 29.9021 21.541C29.7693 21.6816 29.7029 21.8789 29.7029 22.1328V22.5605ZM32.656 26.9082C32.656 26.3809 32.8279 25.957 33.1716 25.6367C33.5154 25.3125 33.9607 25.1504 34.5076 25.1504C35.0623 25.1504 35.5095 25.3105 35.8494 25.6309C36.1931 25.9473 36.365 26.3848 36.365 26.9434V27.3652C36.365 27.8887 36.197 28.3125 35.8611 28.6367C35.5252 28.957 35.0779 29.1172 34.5193 29.1172C33.9568 29.1172 33.5056 28.9551 33.1658 28.6309C32.8259 28.3066 32.656 27.877 32.656 27.3418V26.9082ZM33.781 27.3652C33.781 27.5801 33.8513 27.7637 33.992 27.916C34.1326 28.0684 34.3084 28.1445 34.5193 28.1445C34.9959 28.1445 35.2341 27.8809 35.2341 27.3535V26.9082C35.2341 26.6738 35.1677 26.4863 35.0349 26.3457C34.9021 26.2012 34.7263 26.1289 34.5076 26.1289C34.2888 26.1289 34.113 26.2012 33.9802 26.3457C33.8474 26.4863 33.781 26.6797 33.781 26.9258V27.3652ZM30.7693 28.3613L29.9431 27.916L34.1091 21.248L34.9353 21.6934L30.7693 28.3613Z" fill="white"/>
</svg>
