<svg width="50" height="50" viewBox="0 0 50 50" fill="none" xmlns="http://www.w3.org/2000/svg">
<path d="M50 25C50 38.8071 38.8071 50 25 50C11.1929 50 0 38.8071 0 25C0 11.1929 11.1929 0 25 0C38.8071 0 50 11.1929 50 25ZM6.11036 25C6.11036 35.4325 14.5675 43.8896 25 43.8896C35.4325 43.8896 43.8896 35.4325 43.8896 25C43.8896 14.5675 35.4325 6.11036 25 6.11036C14.5675 6.11036 6.11036 14.5675 6.11036 25Z" fill="#C4C4C4"/>
<path d="M21.2448 3.37886C20.9561 1.71642 22.0713 0.114852 23.7566 0.0309305C27.2094 -0.141015 30.6721 0.404627 33.9222 1.64634C38.1271 3.25279 41.8202 5.96471 44.6117 9.49581C47.4033 13.0269 49.1897 17.2462 49.7823 21.7083C50.375 26.1703 49.752 30.7096 47.979 34.847C46.2061 38.9844 43.3489 42.5664 39.7093 45.2148C36.0696 47.8632 31.7824 49.4798 27.3002 49.894C22.8181 50.3081 18.3072 49.5044 14.2439 47.5678C11.1031 46.0709 8.31976 43.94 6.06277 41.3212C4.9612 40.0431 5.35163 38.1309 6.75452 37.1933V37.1933C8.15741 36.2558 10.0386 36.6543 11.1899 37.8879C12.8002 39.6135 14.726 41.0287 16.8728 42.0519C19.943 43.5152 23.3514 44.1224 26.738 43.8095C30.1247 43.4966 33.364 42.2751 36.1141 40.274C38.8642 38.2729 41.023 35.5664 42.3626 32.4403C43.7023 29.3141 44.173 25.8843 43.7252 22.5128C43.2774 19.1413 41.9276 15.9533 39.8183 13.2853C37.7091 10.6172 34.9186 8.56812 31.7415 7.35431C29.5199 6.50555 27.1669 6.08721 24.8068 6.11134C23.1196 6.12859 21.5335 5.0413 21.2448 3.37886V3.37886Z" fill="#FFFEFE"/>
<path d="M20.3809 21.418L17.082 29H15.2949L18.5996 21.8398H14.3574V20.4688H20.3809V21.418ZM27.3329 25.4727C27.3329 26.6523 27.0887 27.5547 26.6005 28.1797C26.1122 28.8047 25.3973 29.1172 24.4559 29.1172C23.5262 29.1172 22.8153 28.8105 22.3231 28.1973C21.8309 27.584 21.579 26.7051 21.5673 25.5605V23.9902C21.5673 22.7988 21.8134 21.8945 22.3055 21.2773C22.8016 20.6602 23.5145 20.3516 24.4442 20.3516C25.3739 20.3516 26.0848 20.6582 26.577 21.2715C27.0692 21.8809 27.3212 22.7578 27.3329 23.9023V25.4727ZM25.6395 23.75C25.6395 23.043 25.5419 22.5293 25.3466 22.209C25.1552 21.8848 24.8544 21.7227 24.4442 21.7227C24.0458 21.7227 23.7509 21.877 23.5595 22.1855C23.372 22.4902 23.2723 22.9688 23.2606 23.6211V25.6953C23.2606 26.3906 23.3544 26.9082 23.5419 27.248C23.7333 27.584 24.038 27.752 24.4559 27.752C24.87 27.752 25.1688 27.5898 25.3524 27.2656C25.536 26.9414 25.6317 26.4453 25.6395 25.7773V23.75ZM28.5779 22.1094C28.5779 21.5859 28.7478 21.1621 29.0877 20.8379C29.4275 20.5098 29.8728 20.3457 30.4236 20.3457C30.9822 20.3457 31.4314 20.5078 31.7712 20.832C32.1111 21.1523 32.281 21.5879 32.281 22.1387V22.5605C32.281 23.0879 32.1111 23.5117 31.7712 23.832C31.4314 24.1523 30.9861 24.3125 30.4353 24.3125C29.8806 24.3125 29.4314 24.1523 29.0877 23.832C28.7478 23.5078 28.5779 23.0723 28.5779 22.5254V22.1094ZM29.7029 22.5605C29.7029 22.7949 29.7693 22.9844 29.9021 23.1289C30.0388 23.2695 30.2166 23.3398 30.4353 23.3398C30.6541 23.3398 30.8279 23.2676 30.9568 23.123C31.0857 22.9785 31.1502 22.7852 31.1502 22.543V22.1094C31.1502 21.875 31.0857 21.6855 30.9568 21.541C30.8279 21.3965 30.6502 21.3242 30.4236 21.3242C30.2087 21.3242 30.0349 21.3965 29.9021 21.541C29.7693 21.6816 29.7029 21.8789 29.7029 22.1328V22.5605ZM32.656 26.9082C32.656 26.3809 32.8279 25.957 33.1716 25.6367C33.5154 25.3125 33.9607 25.1504 34.5076 25.1504C35.0623 25.1504 35.5095 25.3105 35.8494 25.6309C36.1931 25.9473 36.365 26.3848 36.365 26.9434V27.3652C36.365 27.8887 36.197 28.3125 35.8611 28.6367C35.5252 28.957 35.0779 29.1172 34.5193 29.1172C33.9568 29.1172 33.5056 28.9551 33.1658 28.6309C32.8259 28.3066 32.656 27.877 32.656 27.3418V26.9082ZM33.781 27.3652C33.781 27.5801 33.8513 27.7637 33.992 27.916C34.1326 28.0684 34.3084 28.1445 34.5193 28.1445C34.9959 28.1445 35.2341 27.8809 35.2341 27.3535V26.9082C35.2341 26.6738 35.1677 26.4863 35.0349 26.3457C34.9021 26.2012 34.7263 26.1289 34.5076 26.1289C34.2888 26.1289 34.113 26.2012 33.9802 26.3457C33.8474 26.4863 33.781 26.6797 33.781 26.9258V27.3652ZM30.7693 28.3613L29.9431 27.916L34.1091 21.248L34.9353 21.6934L30.7693 28.3613Z" fill="white"/>
</svg>
