<svg width="50" height="50" viewBox="0 0 50 50" fill="none" xmlns="http://www.w3.org/2000/svg">
<g id="Group 51">
<path id="Ellipse 18" d="M50 25C50 38.8071 38.8071 50 25 50C11.1929 50 0 38.8071 0 25C0 11.1929 11.1929 0 25 0C38.8071 0 50 11.1929 50 25ZM6.11036 25C6.11036 35.4325 14.5675 43.8896 25 43.8896C35.4325 43.8896 43.8896 35.4325 43.8896 25C43.8896 14.5675 35.4325 6.11036 25 6.11036C14.5675 6.11036 6.11036 14.5675 6.11036 25Z" fill="#C4C4C4"/>
<path id="Ellipse 19" d="M21.2448 3.37886C20.9561 1.71642 22.0713 0.114852 23.7566 0.0309305C27.2094 -0.141015 30.6721 0.404627 33.9222 1.64634C38.1271 3.25279 41.8202 5.96471 44.6117 9.49581C47.4033 13.0269 49.1897 17.2462 49.7823 21.7083C50.375 26.1703 49.752 30.7096 47.979 34.847C46.2061 38.9844 43.3489 42.5664 39.7093 45.2148C36.0696 47.8632 31.7824 49.4798 27.3002 49.894C22.8181 50.3081 18.3072 49.5044 14.2439 47.5678C11.1031 46.0709 8.31976 43.94 6.06277 41.3212C4.9612 40.0431 5.35163 38.1309 6.75452 37.1933V37.1933C8.15741 36.2558 10.0386 36.6543 11.1899 37.8879C12.8002 39.6135 14.726 41.0287 16.8728 42.0519C19.943 43.5152 23.3514 44.1224 26.738 43.8095C30.1247 43.4966 33.364 42.2751 36.1141 40.274C38.8642 38.2729 41.023 35.5664 42.3626 32.4403C43.7023 29.3141 44.173 25.8843 43.7252 22.5128C43.2774 19.1413 41.9276 15.9533 39.8183 13.2853C37.7091 10.6172 34.9186 8.56812 31.7415 7.35431C29.5199 6.50555 27.1669 6.08721 24.8068 6.11134C23.1196 6.12859 21.5335 5.0413 21.2448 3.37886V3.37886Z" fill="#FFFEFE"/>
</g>
</svg>
